<?xml version="1.0" encoding="UTF-8"?>
<svg width="47px" height="48px" viewBox="0 0 47 48" version="1.1" xmlns="http://www.w3.org/2000/svg" xmlns:xlink="http://www.w3.org/1999/xlink">
    <!-- Generator: Sketch 54.1 (76490) - https://sketchapp.com -->
    <title>calendar-active</title>
    <desc>Created with Sketch.</desc>
    <g id="calendar-active" stroke="none" stroke-width="1" fill="none" fill-rule="evenodd">
        <g id="calendar" transform="translate(0.000000, 1.000000)" fill="#00B14F" fill-rule="nonzero">
            <path d="M34.7629828,3.64655172 C34.3861724,1.79977586 32.7500862,0.405172414 30.7931034,0.405172414 C30.3457931,0.405172414 29.9827586,0.767396552 29.9827586,1.21551724 C29.9827586,1.66363793 30.3457931,2.02586207 30.7931034,2.02586207 C32.1334138,2.02586207 33.2241379,3.11658621 33.2241379,4.45689655 C33.2241379,5.7972069 32.1334138,6.88793103 30.7931034,6.88793103 C30.3457931,6.88793103 29.9827586,7.25015517 29.9827586,7.69827586 C29.9827586,8.14639655 30.3457931,8.50862069 30.7931034,8.50862069 C32.7492759,8.50862069 34.3861724,7.11401724 34.7629828,5.26724138 L45.3793103,5.26724138 L45.3793103,10.9396552 L35.6551724,10.9396552 L34.0344828,10.9396552 L24.3103448,10.9396552 L22.6896552,10.9396552 L12.9655172,10.9396552 L11.3448276,10.9396552 L1.62068966,10.9396552 L1.62068966,5.26724138 L12.9655172,5.26724138 L15.3965517,5.26724138 C15.8438621,5.26724138 16.2068966,4.90501724 16.2068966,4.45689655 C16.2068966,4.00877586 15.8438621,3.64655172 15.3965517,3.64655172 L13.9249655,3.64655172 C14.2604483,2.70493103 15.1518276,2.02586207 16.2068966,2.02586207 C17.5472069,2.02586207 18.637931,3.11658621 18.637931,4.45689655 C18.637931,5.7972069 17.5472069,6.88793103 16.2068966,6.88793103 C15.7595862,6.88793103 15.3965517,7.25015517 15.3965517,7.69827586 C15.3965517,8.14639655 15.7595862,8.50862069 16.2068966,8.50862069 C18.4410172,8.50862069 20.2586207,6.69101724 20.2586207,4.45689655 C20.2586207,2.22277586 18.4410172,0.405172414 16.2068966,0.405172414 C14.2507241,0.405172414 12.6138276,1.79977586 12.2370172,3.64655172 L0,3.64655172 L0,10.9396552 L0,13.3706897 L0,22.2844828 L0,23.9051724 L0,33.6293103 L0,35.25 L0,46.5948276 L11.3448276,46.5948276 L12.9655172,46.5948276 L22.6896552,46.5948276 L24.3103448,46.5948276 L34.0344828,46.5948276 L35.6551724,46.5948276 L47,46.5948276 L47,35.25 L47,33.6293103 L47,23.9051724 L47,22.2844828 L47,13.3706897 L47,10.9396552 L47,3.64655172 L34.7629828,3.64655172 Z M24.3103448,12.5603448 L34.0344828,12.5603448 L34.0344828,22.2844828 L24.3103448,22.2844828 L24.3103448,12.5603448 Z M34.0344828,33.6293103 L24.3103448,33.6293103 L24.3103448,23.9051724 L34.0344828,23.9051724 L34.0344828,33.6293103 Z M12.9655172,23.9051724 L22.6896552,23.9051724 L22.6896552,33.6293103 L12.9655172,33.6293103 L12.9655172,23.9051724 Z M12.9655172,12.5603448 L22.6896552,12.5603448 L22.6896552,22.2844828 L12.9655172,22.2844828 L12.9655172,12.5603448 Z M1.62068966,13.3706897 L1.62068966,12.5603448 L11.3448276,12.5603448 L11.3448276,22.2844828 L1.62068966,22.2844828 L1.62068966,13.3706897 Z M1.62068966,23.9051724 L11.3448276,23.9051724 L11.3448276,33.6293103 L1.62068966,33.6293103 L1.62068966,23.9051724 Z M1.62068966,44.9741379 L1.62068966,35.25 L11.3448276,35.25 L11.3448276,44.9741379 L1.62068966,44.9741379 Z M12.9655172,44.9741379 L12.9655172,35.25 L22.6896552,35.25 L22.6896552,44.9741379 L12.9655172,44.9741379 Z M24.3103448,44.9741379 L24.3103448,35.25 L34.0344828,35.25 L34.0344828,44.9741379 L24.3103448,44.9741379 Z M45.3793103,44.9741379 L35.6551724,44.9741379 L35.6551724,35.25 L45.3793103,35.25 L45.3793103,44.9741379 Z M45.3793103,33.6293103 L35.6551724,33.6293103 L35.6551724,23.9051724 L45.3793103,23.9051724 L45.3793103,33.6293103 Z M35.6551724,22.2844828 L35.6551724,12.5603448 L45.3793103,12.5603448 L45.3793103,13.3706897 L45.3793103,22.2844828 L35.6551724,22.2844828 Z" id="Shape"></path>
            <path d="M21.0689655,2.02586207 C22.4092759,2.02586207 23.5,3.11658621 23.5,4.45689655 C23.5,5.7972069 22.4092759,6.88793103 21.0689655,6.88793103 C20.6216552,6.88793103 20.2586207,7.25015517 20.2586207,7.69827586 C20.2586207,8.14639655 20.6216552,8.50862069 21.0689655,8.50862069 C23.3030862,8.50862069 25.1206897,6.69101724 25.1206897,4.45689655 C25.1206897,2.22277586 23.3030862,0.405172414 21.0689655,0.405172414 C20.6216552,0.405172414 20.2586207,0.767396552 20.2586207,1.21551724 C20.2586207,1.66363793 20.6216552,2.02586207 21.0689655,2.02586207 Z" id="Path"></path>
            <path d="M25.9310345,2.02586207 C27.2713448,2.02586207 28.362069,3.11658621 28.362069,4.45689655 C28.362069,5.7972069 27.2713448,6.88793103 25.9310345,6.88793103 C25.4837241,6.88793103 25.1206897,7.25015517 25.1206897,7.69827586 C25.1206897,8.14639655 25.4837241,8.50862069 25.9310345,8.50862069 C28.1651552,8.50862069 29.9827586,6.69101724 29.9827586,4.45689655 C29.9827586,2.22277586 28.1651552,0.405172414 25.9310345,0.405172414 C25.4837241,0.405172414 25.1206897,0.767396552 25.1206897,1.21551724 C25.1206897,1.66363793 25.4837241,2.02586207 25.9310345,2.02586207 Z" id="Path"></path>
            <path d="M25.3581207,32.5815345 C25.5161379,32.7395517 25.7235862,32.8189655 25.9310345,32.8189655 C26.1384828,32.8189655 26.345931,32.7395517 26.5039483,32.5815345 L29.1724138,29.913069 L31.8408793,32.5815345 C31.9988966,32.7395517 32.2063448,32.8189655 32.4137931,32.8189655 C32.6212414,32.8189655 32.8286897,32.7395517 32.9867069,32.5815345 C33.3035517,32.2646897 33.3035517,31.7525517 32.9867069,31.4357069 L30.3182414,28.7672414 L32.9867069,26.0987759 C33.3035517,25.781931 33.3035517,25.2697931 32.9867069,24.9529483 C32.6698621,24.6361034 32.1577241,24.6361034 31.8408793,24.9529483 L29.1724138,27.6214138 L26.5039483,24.9529483 C26.1871034,24.6361034 25.6749655,24.6361034 25.3581207,24.9529483 C25.0412759,25.2697931 25.0412759,25.781931 25.3581207,26.0987759 L28.0265862,28.7672414 L25.3581207,31.4357069 C25.0412759,31.7525517 25.0412759,32.2646897 25.3581207,32.5815345 Z" id="Path"></path>
        </g>
    </g>
</svg>