<?xml version="1.0" encoding="UTF-8"?>
<svg width="47px" height="48px" viewBox="0 0 47 48" version="1.1" xmlns="http://www.w3.org/2000/svg" xmlns:xlink="http://www.w3.org/1999/xlink">
    <!-- Generator: Sketch 54.1 (76490) - https://sketchapp.com -->
    <title>call-active</title>
    <desc>Created with Sketch.</desc>
    <g id="call-active" stroke="none" stroke-width="1" fill="none" fill-rule="evenodd">
        <path d="M45.6842749,37.1926569 L36.1884425,30.8600253 C34.9833918,30.0628577 33.368076,30.3251598 32.4771832,31.4627797 L29.7111462,35.0192047 C29.3556686,35.487922 28.7094873,35.623883 28.1952359,35.3382183 L27.6690741,35.0481559 C25.9248519,34.0974366 23.7546062,32.9138246 19.3819571,28.5396179 C15.009308,24.1654113 13.8233138,21.9935166 12.8725945,20.252501 L12.5840897,19.7263392 C12.2944854,19.2121793 12.4278811,18.5632495 12.8967817,18.2049318 L16.4508246,15.4397193 C17.5879864,14.5487349 17.850655,12.9338772 17.0544035,11.72846 L10.7217719,2.23262768 C9.90573099,1.0051306 8.26851852,0.636643275 7.00519883,1.39606433 L3.03438596,3.78133723 C1.78673294,4.51483041 0.871378168,5.70274854 0.480261209,7.09616569 C-0.949619883,12.3061111 0.126066277,21.2976784 13.3714542,34.5446238 C23.907883,45.0802281 31.7517524,47.9135127 37.1431014,47.9135127 C38.383883,47.9188265 39.619809,47.7573957 40.8176218,47.4335263 C42.2113138,47.0428674 43.3994152,46.1274211 44.1324503,44.8794016 L46.5201053,40.9109708 C47.2806257,39.6473762 46.9123216,38.0091559 45.6842749,37.1926569 Z M45.1729552,40.1087641 L42.7907973,44.079577 C42.2644522,44.9803645 41.4099318,45.6426706 40.4062573,45.9277856 C35.5965906,47.2482749 27.1937602,46.15454 14.4776491,33.4384288 C1.76153801,20.7223177 0.667894737,12.3202203 1.98838402,7.50982066 C2.2738655,6.50495517 2.9369961,5.64933528 3.83888304,5.12216569 L7.80969591,2.7400078 C8.357846,2.41018324 9.0684347,2.57005653 9.42253801,3.1027232 L12.8625166,8.26731774 L15.7497641,12.597731 C16.0955302,13.1205945 15.981924,13.8213801 15.488653,14.2082827 L11.9337856,16.9734951 C10.851961,17.8007135 10.5430253,19.2974756 11.2090877,20.4853938 L11.4913626,20.998271 C12.4905478,22.8308129 13.7327953,25.1105419 18.2680663,29.6450799 C22.8033372,34.1795263 25.0823333,35.4218655 26.9140507,36.4209591 L27.4276608,36.7039669 C28.6154873,37.3699376 30.1123411,37.0610936 30.9395595,35.979269 L33.7047719,32.4244016 C34.0917661,31.9314055 34.7922768,31.8178908 35.3153236,32.1632904 L44.8103314,38.495922 C45.3433645,38.8497505 45.5032378,39.5607057 45.1729552,40.1087641 Z" id="Shape" fill="#00B14F" fill-rule="nonzero"></path>
        <path d="M26.5839513,8.82325536 C33.920807,8.83140936 39.8664444,14.7771384 39.8746901,22.1139942 C39.8746901,22.5457895 40.2246706,22.89577 40.6564659,22.89577 C41.0882612,22.89577 41.4382417,22.5457895 41.4382417,22.1139942 C41.4291715,13.9139142 34.7840312,7.26868226 26.5839513,7.2597037 C26.1521559,7.2597037 25.8021754,7.60968421 25.8021754,8.04147953 C25.8021754,8.47327485 26.1521559,8.82325536 26.5839513,8.82325536 Z" id="Path" fill="#00B14F" fill-rule="nonzero"></path>
        <path d="M26.5839513,13.5140936 C31.3312261,13.5196823 35.1782632,17.3667193 35.1838519,22.1139942 C35.1838519,22.5457895 35.533924,22.89577 35.9656277,22.89577 C36.397423,22.89577 36.7474035,22.5457895 36.7474035,22.1139942 C36.7408986,16.5034951 32.1943587,11.9569552 26.5839513,11.9505419 C26.1521559,11.9505419 25.8021754,12.3005224 25.8021754,12.7323177 C25.8021754,13.1641131 26.1521559,13.5140936 26.5839513,13.5140936 Z" id="Path" fill="#00B14F" fill-rule="nonzero"></path>
        <path d="M26.5839513,18.2049318 C28.7417368,18.2074971 30.4903567,19.956117 30.4930136,22.1139942 C30.4930136,22.5457895 30.8430858,22.89577 31.2747895,22.89577 C31.7064932,22.89577 32.0565653,22.5457895 32.0565653,22.1139942 C32.0530838,19.0929844 29.604961,16.64477 26.5839513,16.6413801 C26.1521559,16.6413801 25.8021754,16.9913606 25.8021754,17.4231559 C25.8021754,17.8549513 26.1521559,18.2049318 26.5839513,18.2049318 Z" id="Path" fill="#00B14F" fill-rule="nonzero"></path>
    </g>
</svg>