<?xml version="1.0" encoding="UTF-8"?>
<svg width="47px" height="48px" viewBox="0 0 47 48" version="1.1" xmlns="http://www.w3.org/2000/svg" xmlns:xlink="http://www.w3.org/1999/xlink">
    <!-- Generator: Sketch 54.1 (76490) - https://sketchapp.com -->
    <title>clock-active</title>
    <desc>Created with Sketch.</desc>
    <g id="clock-active" stroke="none" stroke-width="1" fill="none" fill-rule="evenodd">
        <path d="M23.4974799,1 C10.5201877,1 0,11.5201877 0,24.4974799 C0,37.4747721 10.5201877,47.9949598 23.4974799,47.9949598 C36.4747721,47.9949598 46.9949598,37.4747721 46.9949598,24.4974799 C46.9783271,11.527118 36.4678418,1.01663271 23.4974799,1 Z M24.5055228,45.9284718 L24.5055228,41.795496 C24.5055228,41.2388043 24.0541716,40.7874531 23.4974799,40.7874531 C22.9407882,40.7874531 22.489437,41.2388043 22.489437,41.795496 L22.489437,45.9284718 C11.4361206,45.4007614 2.59419839,36.5588391 2.06648794,25.5055228 L6.19946381,25.5055228 C6.7561555,25.5055228 7.2075067,25.0541716 7.2075067,24.4974799 C7.2075067,23.9407882 6.7561555,23.489437 6.19946381,23.489437 L2.06648794,23.489437 C2.59419839,12.4361206 11.4361206,3.59419839 22.489437,3.06648794 L22.489437,7.19946381 C22.489437,7.7561555 22.9407882,8.2075067 23.4974799,8.2075067 C24.0541716,8.2075067 24.5055228,7.7561555 24.5055228,7.19946381 L24.5055228,3.06648794 C35.5588391,3.59419839 44.4007614,12.4361206 44.9284718,23.489437 L40.795496,23.489437 C40.2388043,23.489437 39.7874531,23.9407882 39.7874531,24.4974799 C39.7874531,25.0541716 40.2388043,25.5055228 40.795496,25.5055228 L40.8055764,25.5055228 L44.9385523,25.5055228 C44.4104638,36.5624933 35.5627453,45.4058016 24.5055228,45.9284718 Z" id="Shape" fill="#00B14F" fill-rule="nonzero"></path>
        <path d="M34.1323324,33.8722788 L24.5055228,24.0841823 L24.5055228,13.9130295 C24.5055228,13.3563378 24.0541716,12.9049866 23.4974799,12.9049866 C22.9407882,12.9049866 22.489437,13.3563378 22.489437,13.9130295 L22.489437,24.4974799 C22.490571,24.7619651 22.5955335,25.0153619 22.7817694,25.2031099 L32.6908311,35.2835389 C33.0805657,35.6815898 33.7191609,35.6883941 34.1172118,35.2986595 C34.5152627,34.9089249 34.522067,34.2703298 34.1323324,33.8722788 Z" id="Path" fill="#00B14F" fill-rule="nonzero"></path>
    </g>
</svg>