<?xml version="1.0" encoding="UTF-8"?>
<svg width="64px" height="24px" viewBox="0 0 64 24" version="1.1" xmlns="http://www.w3.org/2000/svg" xmlns:xlink="http://www.w3.org/1999/xlink">
    <!-- Generator: Sketch 54.1 (76490) - https://sketchapp.com -->
    <title>Base/Logo/Grab</title>
    <desc>Created with Sketch.</desc>
    <g id="Forms" stroke="none" stroke-width="1" fill="none" fill-rule="evenodd">
        <g id="Menu/Add" transform="translate(-16.000000, -24.000000)" fill="#00B14F">
            <g id="Base/Logo/Grab" transform="translate(16.000000, 24.000000)">
                <g id="Logo">
                    <g id="R" transform="translate(19.200000, 6.352941)">
                        <path d="M9.25308316,4.87389728 C9.3897902,4.90895741 9.53581816,4.94986089 9.67252519,4.99368606 C9.90865552,4.46194073 10.1789626,3.98570728 10.4616976,3.55914234 C10.1727487,3.45104027 9.88069272,3.37507665 9.71291591,3.33125149 C9.22822734,3.18808928 8.7248969,3.11796902 8.20913855,3.11796902 C5.30100714,3.11796902 3.10748067,5.18067343 3.10748067,7.91828536 L3.10748067,16.6102763 L4.81010462,16.6102763 L4.81010462,7.91828536 C4.81010462,6.06594175 6.24552846,4.72197004 8.20913855,4.72197004 C8.55712009,4.72197004 8.89578069,4.76871688 9.22201338,4.86513224 L9.25308316,4.87389728 Z" id="Fill-9"></path>
                        <path d="M11.0159825,2.80038266 C11.4323175,2.2861674 11.8455456,1.87128918 12.1873132,1.56451303 C11.9107921,1.40966411 11.4074617,1.18761661 10.4722613,0.872075429 L10.4287636,0.857467041 C9.7141587,0.658792962 8.965377,0.556534245 8.21038134,0.556534245 C3.67730044,0.556534245 0.387010731,3.65643421 0.387010731,7.91916187 L0.387010731,16.6111528 L2.08963468,16.6111528 L2.08963468,7.91916187 C2.08963468,4.52709414 4.60939384,2.16053526 8.21038134,2.16053526 C8.79449321,2.16053526 9.36928414,2.23942056 9.92232622,2.3913478 C10.3200194,2.52282329 10.7332475,2.68059388 11.0159825,2.80038266" id="Fill-11"></path>
                    </g>
                    <g id="A" transform="translate(29.155556, 6.352941)">
                        <path d="M8.34287267,3.11650818 C5.52484362,3.11650818 3.23810781,5.26686292 3.23810781,7.91682452 L3.23810781,9.21404939 C3.23810781,11.8581676 5.52484362,14.0114441 8.34287267,14.0114441 C9.2003986,14.0114441 10.0051059,13.8069266 10.7166039,13.4534036 L10.7166039,11.60106 C10.0579245,12.126962 9.26564514,12.407443 8.34287267,12.407443 C6.46625796,12.407443 4.94073176,10.975821 4.94073176,9.21404939 L4.94073176,7.91682452 C4.94073176,6.15505291 6.46625796,4.71758752 8.34287267,4.71758752 C10.2163804,4.71758752 11.7419066,6.15505291 11.7419066,7.91682452 L11.7419066,9.21404939 C11.7419066,9.28124798 11.7356926,9.35136824 11.7325857,9.41856682 L11.7387996,9.41856682 L11.7387996,12.7843395 L11.7419066,12.7814178 L11.7419066,13.993914 L11.7419066,13.9968357 L11.7387996,15.8374926 L11.7419066,15.8374926 L11.7419066,16.6117371 L13.4507445,16.6117371 L13.4507445,9.21404939 L13.4507445,7.91682452 C13.4507445,5.26686292 11.1546878,3.11650818 8.34287267,3.11650818" id="Fill-1"></path>
                        <path d="M16.1606507,7.65124403 C16.0115158,3.71574426 12.5627702,0.557410748 8.34349407,0.557410748 C4.02790162,0.557410748 0.517016474,3.85890647 0.517016474,7.91711669 L0.517016474,9.21434156 C0.517016474,13.2725518 4.02790162,16.5711258 8.34349407,16.5711258 C9.16373626,16.5711258 9.95601565,16.451337 10.7172253,16.2205245 L10.7172253,14.5142648 C9.97155054,14.8122759 9.17305719,14.9700465 8.34349407,14.9700465 C4.96931595,14.9700465 2.2227474,12.3902051 2.2227474,9.21434156 L2.2227474,7.91711669 C2.2227474,4.74417479 4.96931595,2.15849009 8.34349407,2.15849009 C11.7176722,2.15849009 14.4611338,4.74417479 14.4611338,7.91711669 L14.4611338,16.6120293 L16.1699717,16.6120293 L16.1699717,7.65124403 L16.1606507,7.65124403 Z" id="Fill-3"></path>
                    </g>
                    <g id="B" transform="translate(46.222222, 0.000000)">
                        <path d="M5.03091138,7.12947775 C5.40168324,6.87529179 5.79231788,6.65616597 6.19950484,6.4691786 L6.19950484,0.298595454 L4.38206062,0.298595454 L4.38206062,7.57649442 C4.60055118,7.43041054 4.80911035,7.28140498 5.03091138,7.12947775" id="Fill-5"></path>
                        <path d="M3.4790349,8.35833536 L3.4790349,0.30034846 L1.66159068,0.30034846 L1.66159068,9.80456578 C2.21443801,9.32833233 2.82356321,8.8491772 3.4790349,8.35833536" id="Fill-7"></path>
                        <path d="M9.59215203,9.46944936 C8.08216072,9.46944936 6.72751831,10.0917667 5.78921096,11.0734504 L5.782997,11.0646853 C4.50602904,12.218748 1.98937686,14.9709683 0.1189761,17.2469552 L0.1189761,19.8910735 C0.25879011,19.7128511 0.404818076,19.5287854 0.560166976,19.3388764 L0.550846042,19.3301114 C0.653376316,19.1986359 2.08880015,17.4076475 3.70442872,15.5728339 C3.96852185,15.2689794 4.23261498,14.9709683 4.48428019,14.6817222 L4.48428019,14.6992523 C5.45365733,13.63284 6.41682051,12.6423913 7.14385337,12.0551341 C7.75903501,11.4503468 8.62898885,11.0734504 9.59215203,11.0734504 C11.4656598,11.0734504 12.991186,12.5079941 12.991186,14.2697657 L12.991186,15.5669906 C12.991186,17.3287622 11.4656598,18.7662276 9.59215203,18.7662276 C7.71553732,18.7662276 6.19001112,17.3287622 6.19001112,15.5669906 L6.19001112,14.4859698 C5.65871788,15.0469319 5.09324788,15.6692493 4.54952673,16.2886449 C4.92236409,18.5938486 7.03821611,20.3643852 9.59215203,20.3643852 C12.4070741,20.3643852 14.6969169,18.2111088 14.6969169,15.5669906 L14.6969169,14.2697657 C14.6969169,11.6227258 12.4070741,9.46944936 9.59215203,9.46944936" id="Fill-13"></path>
                        <path d="M5.6835737,7.97384258 C3.95609393,9.18926047 2.58591663,10.3813049 1.47361851,11.5207592 C0.985822963,12.0554262 0.532204174,12.5900932 0.1189761,13.1013868 L0.1189761,15.7571918 C1.70974884,13.5717769 3.86288459,11.1497062 5.85756447,9.71224077 C6.9418998,8.92923117 8.23440265,8.51435294 9.59215203,8.51435294 C12.9663301,8.51435294 15.7128987,11.097116 15.7128987,14.2700579 L15.7128987,15.5672827 C15.7128987,18.7402246 12.9663301,21.3229877 9.59215203,21.3229877 C6.83004859,21.3229877 4.49981508,19.5904328 3.74481943,17.223874 C3.28498669,17.758541 2.86243768,18.2610695 2.50824218,18.6847128 C3.76035432,21.1915122 6.46031821,22.924067 9.59215203,22.924067 C13.9046375,22.924067 17.4186296,19.625493 17.4186296,15.5672827 L17.4186296,14.2700579 C17.4186296,10.2118476 13.9046375,6.91035192 9.59215203,6.91035192 C8.14740726,6.91035192 6.53488568,7.37489867 5.6835737,7.97384258 Z" id="Fill-15"></path>
                    </g>
                    <g id="G" transform="translate(0.000000, 3.529412)">
                        <polygon id="Fill-18" points="14.1025732 13.0404947 9.9578645 13.0404947 9.9578645 11.3039456 14.1025732 11.3039456"></polygon>
                        <path d="M10.335673,4.24078989 C13.0573858,4.24078989 15.0303168,4.69072824 15.8940567,5.5058763 L15.9561962,5.44744275 L15.9561962,3.59509913 C14.6481585,2.95817341 12.7684368,2.63678887 10.335673,2.63678887 C6.2002853,2.63678887 2.70804203,5.88569439 2.70804203,9.7364655 L2.70804203,10.1951689 C2.70804203,14.0488617 6.03250849,17.2977672 9.9721566,17.2977672 C13.3370138,17.2977672 14.6792283,16.184608 14.8221493,16.0589759 L15.0862424,15.8193983 L15.0862424,11.299563 L13.3774045,11.299563 L13.3774045,15.0509971 C12.9175717,15.287653 11.8611992,15.6908445 9.9721566,15.6908445 C6.96149492,15.6908445 4.41377295,13.1752801 4.41377295,10.1951689 L4.41377295,9.7364655 C4.41377295,6.75635432 7.12616475,4.24078989 10.335673,4.24078989" id="Fill-20"></path>
                        <path d="M9.9578645,10.3953038 L16.0848251,10.3953038 L16.0848251,16.2328157 C15.5597458,16.7528743 13.7390567,18.2370866 9.97339939,18.2370866 C5.49313711,18.2370866 1.7088379,14.5528511 1.7088379,10.1966297 L1.7088379,9.73792634 C1.7088379,5.37878332 5.66091392,1.69746951 10.3369158,1.69746951 C12.5521911,1.69746951 14.5561919,2.06267921 15.957439,2.71421333 L15.957439,0.961206749 C14.407057,0.403166322 12.4403399,0.0876251382 10.3369158,0.0876251382 C4.7319275,0.0876251382 0,4.50812339 0,9.73792634 L0,10.1966297 C0,15.4264327 4.56725767,19.8440093 9.97339939,19.8440093 C15.3733272,19.8440093 17.5419978,17.1151624 17.6289932,16.9982952 L17.793663,16.7908561 L17.793663,8.78545944 L9.9578645,8.78545944 L9.9578645,10.3953038 Z" id="Fill-21"></path>
                    </g>
                </g>
            </g>
        </g>
    </g>
</svg>