<?xml version="1.0" encoding="UTF-8"?>
<svg width="47px" height="48px" viewBox="0 0 47 48" version="1.1" xmlns="http://www.w3.org/2000/svg" xmlns:xlink="http://www.w3.org/1999/xlink">
    <!-- Generator: Sketch 54.1 (76490) - https://sketchapp.com -->
    <title>location-active</title>
    <desc>Created with Sketch.</desc>
    <g id="location-active" stroke="none" stroke-width="1" fill="none" fill-rule="evenodd">
        <path d="M29.124898,35.8236735 C33.1706122,29.1134694 38.2840816,19.68 38.2840816,14.8310204 C38.2840816,6.65142857 31.6326531,-2.84217094e-14 23.4530612,-2.84217094e-14 C15.2734694,-2.84217094e-14 8.62204082,6.65142857 8.62204082,14.8310204 C8.62204082,19.68 13.7355102,29.1134694 17.7812245,35.8236735 C12.9812245,36.1861224 2.05877551,37.4889796 2.05877551,41.8089796 C2.05877551,46.0604082 13.1477551,48 23.4628571,48 C33.7681633,48 44.8669388,46.0604082 44.8669388,41.8089796 C44.8571429,37.4889796 33.924898,36.1861224 29.124898,35.8236735 Z M10.6693878,14.8310204 C10.6693878,7.77795918 16.4097959,2.03755102 23.4530612,2.03755102 C30.5061224,2.03755102 36.2465306,7.77795918 36.2465306,14.8310204 C36.2465306,20.9926531 26.4310204,36.4506122 23.4530612,40.9959184 C20.475102,36.4506122 10.6693878,20.9926531 10.6693878,14.8310204 Z M23.4530612,45.9526531 C10.9240816,45.9526531 4.09632653,43.2097959 4.09632653,41.7991837 C4.09632653,40.7118367 8.60244898,38.3706122 18.9861224,37.7730612 C20.9355102,40.917551 22.4146939,43.1412245 22.6106122,43.4057143 C22.875102,43.7583673 23.6489796,44.1795918 24.3053061,43.4057143 C24.5110204,43.1608163 25.9804082,40.917551 27.9297959,37.7730612 C38.3134694,38.3706122 42.8195918,40.7020408 42.8195918,41.7991837 C42.8097959,43.2195918 35.9820408,45.9526531 23.4530612,45.9526531 Z" id="Shape" fill="#00B14F" fill-rule="nonzero"></path>
        <path d="M29,15 C29,11.6858877 26.3141123,9 23,9 C19.6858877,9 17,11.6858877 17,15 C17,18.3141123 19.6858877,21 23,21 C26.3141123,21 29,18.3141123 29,15 Z M19,15 C19,12.7915743 20.7915743,11 23,11 C25.2084257,11 27,12.7915743 27,15 C27,17.2084257 25.2084257,19 23,19 C20.7915743,19 19,17.2084257 19,15 Z" id="Shape" fill="#00B14F" fill-rule="nonzero"></path>
    </g>
</svg>