<?xml version="1.0" encoding="UTF-8"?>
<svg width="47px" height="48px" viewBox="0 0 47 48" version="1.1" xmlns="http://www.w3.org/2000/svg" xmlns:xlink="http://www.w3.org/1999/xlink">
    <!-- Generator: Sketch 54.1 (76490) - https://sketchapp.com -->
    <title>menu</title>
    <desc>Created with Sketch.</desc>
    <g id="menu" stroke="none" stroke-width="1" fill="none" fill-rule="evenodd">
        <g id="dish" fill="#6B6D70" fill-rule="nonzero">
            <path d="M33.5821943,17.3046296 L33.0567795,15.5647025 C32.3893719,13.5882425 30.2558975,12.5304319 28.2915256,13.2019466 C27.1864769,13.5796993 26.3186628,14.4528537 25.9432205,15.5647025 L25.4178057,17.3046296 C24.9756635,18.7719983 24.882877,20.3234607 25.1469143,21.8335453 C25.3877294,23.1049354 26.189969,24.1972275 27.32714,24.8020436 L26.7387082,38.0371822 C26.6599369,38.7759101 26.8980922,39.5134028 27.3934306,40.0644895 C28.4586845,41.2368611 30.2669459,41.3183816 31.4321472,40.2465725 C31.4951643,40.188623 31.5555215,40.1278944 31.6131166,40.0644895 C32.0974066,39.5290482 32.3351527,38.8131707 32.267839,38.0923526 L31.6761336,24.8003968 C32.8117701,24.1952719 33.6126798,23.1037003 33.8530857,21.8335453 C34.117123,20.3234607 34.0243365,18.7719983 33.5821943,17.3046296 Z M32.2408317,21.5469884 C32.0636475,22.4603884 31.4166999,23.209821 30.5426455,23.5141847 C30.2108853,23.6396563 29.9971798,23.9657382 30.0131387,24.3219786 L30.635125,38.222456 C30.6637691,38.4951173 30.5743586,38.7669552 30.3896041,38.9684919 C29.8968232,39.4593646 29.1031768,39.4593646 28.6103959,38.9684919 C28.4164344,38.7506923 28.3283538,38.4575479 28.3697854,38.168109 L28.9868613,24.3219786 C29.0028202,23.9657382 28.7891147,23.6396563 28.4573545,23.5141847 C27.5833001,23.209821 26.9363525,22.4603884 26.7591683,21.5469884 C26.5402455,20.2933022 26.6173799,19.0053403 26.9842291,17.7871649 L27.5096438,16.0464144 C27.9161855,14.9404326 29.1368337,14.3754504 30.2361535,14.7844938 C30.817322,15.0007496 31.2754231,15.4617726 31.4903562,16.0464144 L32.0157709,17.7871649 C32.3822109,19.0054433 32.4593453,20.2933022 32.2408317,21.5469884 Z" id="Shape"></path>
            <path d="M21.1818182,13 C20.7299773,13 20.3636364,13.3687847 20.3636364,13.8236397 L20.3636364,20.8954102 L18.1488182,23.1250028 C17.9849773,23.2893189 17.8978409,23.5159228 17.9090909,23.7484981 L18.625,38.1621928 C18.6420795,38.4730138 18.5299886,38.7770398 18.3157273,39.0014817 C17.867875,39.4563367 17.1384659,39.4596312 16.6865227,39.0086885 C16.6840682,39.0063205 16.6817159,39.0038496 16.6793636,39.0014817 C16.465,38.7770398 16.3530114,38.4730138 16.3700909,38.1621928 L17.0909091,23.7484981 C17.1023636,23.5160258 17.0155341,23.2895249 16.852,23.1250028 L14.6363636,20.8954102 L14.6363636,13.8236397 C14.6363636,13.3687847 14.2700227,13 13.8181818,13 C13.3663409,13 13,13.3687847 13,13.8236397 L13,21.236397 C13,21.4548674 13.0863182,21.6642778 13.2397273,21.8187103 L15.4373636,24.0318301 L14.7394545,38.0822998 C14.6652045,39.6170494 15.8409318,40.9219006 17.3655114,40.9966459 C18.8900909,41.0713912 20.1862955,39.8878209 20.2605455,38.3530713 C20.2649432,38.2628828 20.2649432,38.1725913 20.2605455,38.0824027 L19.5626364,24.0319331 L21.7602727,21.8188132 C21.9136818,21.6643808 22,21.4549704 22,21.2364999 L22,13.8237427 C22,13.3687847 21.6336591,13 21.1818182,13 Z" id="Path"></path>
            <path d="M15.5,12 C15.223875,12 15,12.3582 15,12.8 L15,19.2 C15,19.6418 15.223875,20 15.5,20 C15.776125,20 16,19.6418 16,19.2 L16,12.8 C16,12.3582 15.776125,12 15.5,12 Z" id="Path"></path>
            <path d="M19.5,12 C19.223875,12 19,12.3582 19,12.8 L19,19.2 C19,19.6418 19.223875,20 19.5,20 C19.776125,20 20,19.6418 20,19.2 L20,12.8 C20,12.3582 19.776125,12 19.5,12 Z" id="Path"></path>
            <path d="M23.5,0 C10.5213417,0 0,10.7452 0,24 C0,37.2548 10.5213417,48 23.5,48 C36.4786583,48 47,37.2548 47,24 C46.9853125,10.7514 36.4725875,0.015 23.5,0 Z M23.5,46.4 C11.3865333,46.4 1.56666667,36.3712 1.56666667,24 C1.56666667,11.6288 11.3865333,1.6 23.5,1.6 C35.6134667,1.6 45.4333333,11.6288 45.4333333,24 C45.4195271,36.3653 35.6076896,46.3859 23.5,46.4 Z" id="Shape"></path>
            <path d="M25.9963025,39.4234938 C25.9549688,39.1657055 25.577955,38.9770984 25.154212,39.0022499 C25.144288,39.0028362 25.1343641,39.0035397 25.1244401,39.0043605 L25.1275233,39.0038915 C24.0423441,39.0805772 22.9460848,39.0805772 21.8609056,39.0038915 C21.4379334,38.973698 21.054946,39.1578493 21.0053262,39.4152273 C20.9557065,39.6726052 21.2583388,39.9056525 21.681311,39.935846 C22.8848068,40.0213847 24.1005389,40.0213847 25.3040347,39.935846 C25.7276814,39.9107532 26.0376363,39.6813408 25.9963025,39.4234938 Z" id="Path"></path>
            <path d="M35.2828164,14.2709281 C35.0023227,13.9501714 34.503777,13.9081935 34.1693384,14.177307 C34.1682516,14.1781598 34.1671648,14.1791074 34.1659792,14.1799602 C33.832331,14.4498318 33.7898469,14.927982 34.071131,15.2480754 C38.8367577,20.673934 38.472185,28.6970221 33.2325151,33.7047125 C32.9232706,34.0002635 32.9223814,34.4804037 33.2305391,34.7769971 C33.5386969,35.0735904 34.0393174,35.0744433 34.3485619,34.7788922 C40.1715481,29.2153498 40.5776169,20.3003022 35.2828164,14.2709281 Z" id="Path"></path>
            <g id="Group" transform="translate(16.000000, 7.000000)">
                <path d="M0.898619946,2.87990833 C0.897834232,2.87990833 0.897048518,2.87975833 0.896262803,2.87975833 C0.89500566,2.87975833 0.893748518,2.87990833 0.892334232,2.87990833 L0.898619946,2.87990833 Z" id="Path"></path>
                <path d="M10.3499623,0.496888889 C7.10548113,-0.335666667 3.70274528,-0.111888889 0.577811321,1.13955556 C0.148603774,1.31233333 -0.0683867925,1.825 0.0929811321,2.28444444 C0.214603774,2.63077778 0.523849057,2.86 0.869311321,2.86033333 C0.968622642,2.85977778 1.067,2.84033333 1.15977358,2.80266667 C3.97390566,1.67588889 7.03813208,1.47466667 9.95977358,2.22488889 C10.4054811,2.34022222 10.8540943,2.047 10.9618113,1.56977778 C11.0695283,1.09255556 10.7956698,0.612222222 10.3499623,0.496888889 Z" id="Path"></path>
            </g>
            <path d="M13.7668772,33.6502479 C11.0855303,30.9932297 9.58274711,27.3842524 9.59189405,23.6233918 C9.58403961,20.6186904 10.5428779,17.6899799 12.3288186,15.2639939 C12.5927874,14.9154225 12.5220975,14.4204945 12.1709344,14.1584738 C11.8197713,13.8964531 11.3211635,13.9666214 11.0571946,14.3151928 C11.0525217,14.3214102 11.0479482,14.3276277 11.0434742,14.3339438 C6.44484841,20.6094136 7.12152337,29.2714922 12.6398147,34.7682029 C12.9508107,35.0771011 13.4552846,35.0772985 13.7664795,34.7685977 C14.0776744,34.4598968 14.0778732,33.9591462 13.7668772,33.6502479 Z" id="Path"></path>
        </g>
    </g>
</svg>