<?xml version="1.0" encoding="UTF-8"?>
<svg width="47px" height="48px" viewBox="0 0 47 48" version="1.1" xmlns="http://www.w3.org/2000/svg" xmlns:xlink="http://www.w3.org/1999/xlink">
    <!-- Generator: Sketch 54.1 (76490) - https://sketchapp.com -->
    <title>photo</title>
    <desc>Created with Sketch.</desc>
    <g id="photo" stroke="none" stroke-width="1" fill="none" fill-rule="evenodd">
        <path d="M46.1896552,5 L0.810344828,5 C0.363034483,5 0,5.36222414 0,5.81034483 L0,41.4655172 C0,41.9136379 0.363034483,42.2758621 0.810344828,42.2758621 L46.1896552,42.2758621 C46.6369655,42.2758621 47,41.9136379 47,41.4655172 L47,5.81034483 C47,5.36222414 46.6369655,5 46.1896552,5 Z M45.3793103,40.6551724 L1.62068966,40.6551724 L1.62068966,6.62068966 L45.3793103,6.62068966 L45.3793103,40.6551724 Z" id="Shape" fill="#6B6D70" fill-rule="nonzero"></path>
        <path d="M12.9655172,22.9394138 C15.4540862,22.9394138 17.4783276,20.9151724 17.4783276,18.4274138 C17.4783276,15.9380345 15.4540862,13.9137931 12.9655172,13.9137931 C10.4769483,13.9137931 8.4527069,15.9380345 8.4527069,18.4266034 C8.4527069,20.9151724 10.4769483,22.9394138 12.9655172,22.9394138 Z M12.9655172,15.5344828 C14.5602759,15.5344828 15.8576379,16.8326552 15.8576379,18.4266034 C15.8576379,20.0205517 14.5602759,21.3187241 12.9655172,21.3187241 C11.3707586,21.3187241 10.0733966,20.0213621 10.0733966,18.4274138 C10.0733966,16.8334655 11.3707586,15.5344828 12.9655172,15.5344828 Z" id="Shape" fill="#6B6D70" fill-rule="nonzero"></path>
        <path d="M5.67241379,37.4137931 C5.86203448,37.4137931 6.05327586,37.3473448 6.20724138,37.2120172 L19.4263966,25.5738448 L27.774569,33.9212069 C28.0914138,34.2380517 28.6035517,34.2380517 28.9203966,33.9212069 C29.2372414,33.6043621 29.2372414,33.0922241 28.9203966,32.7753793 L25.025069,28.8800517 L32.4648448,20.7328448 L41.5901379,29.0980345 C41.9199483,29.4002931 42.4328966,29.3776034 42.7351552,29.0477931 C43.0374138,28.7179828 43.0155345,28.2050345 42.6849138,27.9027759 L32.9607759,18.9889828 C32.8019483,18.843931 32.5904483,18.7718103 32.3773276,18.7766724 C32.1625862,18.7863966 31.96,18.8812069 31.8149483,19.0400345 L23.878431,27.7326034 L20.0349655,23.8891379 C19.7318966,23.5868793 19.2473103,23.5714828 18.9264138,23.8534828 L5.13677586,35.9948793 C4.80048276,36.2906552 4.76806897,36.8027931 5.06384483,37.1390862 C5.2242931,37.3214138 5.44794828,37.4137931 5.67241379,37.4137931 Z" id="Path" fill="#6B6D70" fill-rule="nonzero"></path>
    </g>
</svg>